<?xml version="1.0" standalone="no"?>
<!DOCTYPE svg PUBLIC "-//W3C//DTD SVG 20010904//EN"
  "http://www.w3.org/TR/2001/REC-SVG-20010904/DTD/svg10.dtd">
<svg width="800" height="600">
stroke:transparent;stroke:transparent;fill:#e8e8e8;  <rect x="295.5" y="50" width="10" height="10"/>
stroke:transparent;stroke:transparent;fill:#dfdfdf;  <rect x="332.5" y="50" width="10" height="10"/>
stroke:transparent;stroke:transparent;fill:#d0d0d0;  <rect x="375.5" y="50" width="10" height="10"/>
stroke:transparent;stroke:transparent;fill:#c0c0c0;  <rect x="418.5" y="50" width="10" height="10"/>
stroke:transparent;stroke:transparent;fill:#869023;  <rect x="461.5" y="50" width="10" height="10"/>
stroke-antialias:0;fill:#aaa;  <line x1="57" y1="557" x2="780" y2="557"/>
stroke:transparent;fill:#aaa;  <line x1="57" y1="439.75" x2="780" y2="439.75"/>
stroke:transparent;fill:#aaa;  <line x1="57" y1="322.5" x2="780" y2="322.5"/>
stroke:transparent;fill:#aaa;  <line x1="57" y1="205.25" x2="780" y2="205.25"/>
stroke:transparent;fill:#aaa;  <line x1="57" y1="88" x2="780" y2="88"/>
stroke:transparent;stroke-antialias:1;stroke:transparent;stroke-opacity:0.0;fill:#e8e8e8;  <rect x="57.8033" y="558" width="14.46" height="-2"/>
stroke:transparent;fill:#e8e8e8;  <rect x="138.137" y="543.93" width="14.46" height="12.07"/>
stroke:transparent;fill:#e8e8e8;  <rect x="218.47" y="543.93" width="14.46" height="12.07"/>
stroke:transparent;fill:#e8e8e8;  <rect x="298.803" y="543.93" width="14.46" height="12.07"/>
stroke:transparent;fill:#e8e8e8;  <rect x="379.137" y="543.93" width="14.46" height="12.07"/>
stroke:transparent;fill:#e8e8e8;  <rect x="459.47" y="543.93" width="14.46" height="12.07"/>
stroke:transparent;fill:#e8e8e8;  <rect x="539.803" y="543.93" width="14.46" height="12.07"/>
stroke:transparent;fill:#e8e8e8;  <rect x="620.137" y="558" width="14.46" height="-2"/>
stroke:transparent;fill:#e8e8e8;  <rect x="700.47" y="558" width="14.46" height="-2"/>
stroke:transparent;fill:#dfdfdf;  <rect x="73.87" y="558" width="14.46" height="-2"/>
fill:#dfdfdf;  <rect x="154.203" y="543.93" width="14.46" height="12.07"/>
fill:#dfdfdf;  <rect x="234.537" y="543.93" width="14.46" height="12.07"/>
fill:#dfdfdf;  <rect x="314.87" y="543.93" width="14.46" height="12.07"/>
fill:#dfdfdf;  <rect x="395.203" y="543.93" width="14.46" height="12.07"/>
fill:#dfdfdf;  <rect x="475.537" y="543.93" width="14.46" height="12.07"/>
fill:#dfdfdf;  <rect x="555.87" y="543.93" width="14.46" height="12.07"/>
fill:#dfdfdf;  <rect x="636.203" y="558" width="14.46" height="-2"/>
fill:#dfdfdf;  <rect x="716.537" y="558" width="14.46" height="-2"/>
fill:#d0d0d0;  <rect x="89.9367" y="558" width="14.4603" height="-2"/>
fill:#d0d0d0;  <rect x="170.27" y="543.93" width="14.46" height="12.07"/>
fill:#d0d0d0;  <rect x="250.603" y="543.93" width="14.46" height="12.07"/>
fill:#d0d0d0;  <rect x="330.937" y="543.93" width="14.46" height="12.07"/>
fill:#d0d0d0;  <rect x="411.27" y="543.93" width="14.46" height="12.07"/>
fill:#d0d0d0;  <rect x="491.603" y="543.93" width="14.46" height="12.07"/>
fill:#d0d0d0;  <rect x="571.937" y="543.93" width="14.46" height="12.07"/>
fill:#d0d0d0;  <rect x="652.27" y="558" width="14.46" height="-2"/>
fill:#d0d0d0;  <rect x="732.603" y="558" width="14.46" height="-2"/>
fill:#c0c0c0;  <rect x="106.003" y="558" width="14.46" height="-2"/>
fill:#c0c0c0;  <rect x="186.337" y="543.93" width="14.46" height="12.07"/>
fill:#c0c0c0;  <rect x="266.67" y="543.93" width="14.46" height="12.07"/>
fill:#c0c0c0;  <rect x="347.003" y="543.93" width="14.46" height="12.07"/>
fill:#c0c0c0;  <rect x="427.337" y="543.93" width="14.46" height="12.07"/>
fill:#c0c0c0;  <rect x="507.67" y="543.93" width="14.46" height="12.07"/>
fill:#c0c0c0;  <rect x="588.003" y="543.93" width="14.46" height="12.07"/>
fill:#c0c0c0;  <rect x="668.337" y="543.93" width="14.46" height="12.07"/>
fill:#c0c0c0;  <rect x="748.67" y="543.93" width="14.46" height="12.07"/>
fill:#869023;  <rect x="122.07" y="558" width="14.46" height="-2"/>
fill:#869023;  <rect x="202.403" y="543.93" width="14.46" height="12.07"/>
fill:#869023;  <rect x="282.737" y="543.93" width="14.46" height="12.07"/>
fill:#869023;  <rect x="363.07" y="543.93" width="14.46" height="12.07"/>
fill:#869023;  <rect x="443.403" y="543.93" width="14.46" height="12.07"/>
fill:#869023;  <rect x="523.737" y="543.93" width="14.46" height="12.07"/>
fill:#869023;  <rect x="604.07" y="543.93" width="14.46" height="12.07"/>
fill:#869023;  <rect x="684.403" y="543.93" width="14.46" height="12.07"/>
fill:#869023;  <rect x="764.737" y="543.93" width="14.46" height="12.07"/>
stroke:transparent;stroke:transparent;fill:#e8e8e8;  <rect x="295.5" y="50" width="10" height="10"/>
stroke:transparent;stroke:transparent;fill:#dfdfdf;  <rect x="332.5" y="50" width="10" height="10"/>
stroke:transparent;stroke:transparent;fill:#d0d0d0;  <rect x="375.5" y="50" width="10" height="10"/>
stroke:transparent;stroke:transparent;fill:#c0c0c0;  <rect x="418.5" y="50" width="10" height="10"/>
stroke:transparent;stroke:transparent;fill:#869023;  <rect x="461.5" y="50" width="10" height="10"/>
stroke-antialias:0;fill:#aaa;  <line x1="57" y1="557" x2="780" y2="557"/>
stroke:transparent;fill:#aaa;  <line x1="57" y1="439.75" x2="780" y2="439.75"/>
stroke:transparent;fill:#aaa;  <line x1="57" y1="322.5" x2="780" y2="322.5"/>
stroke:transparent;fill:#aaa;  <line x1="57" y1="205.25" x2="780" y2="205.25"/>
stroke:transparent;fill:#aaa;  <line x1="57" y1="88" x2="780" y2="88"/>
stroke:transparent;stroke-antialias:1;stroke:transparent;stroke-opacity:0.0;fill:#e8e8e8;  <rect x="57.8033" y="558" width="14.46" height="-2"/>
fill:#e8e8e8;  <rect x="138.137" y="543.93" width="14.46" height="12.07"/>
fill:#e8e8e8;  <rect x="218.47" y="543.93" width="14.46" height="12.07"/>
fill:#e8e8e8;  <rect x="298.803" y="543.93" width="14.46" height="12.07"/>
fill:#e8e8e8;  <rect x="379.137" y="543.93" width="14.46" height="12.07"/>
fill:#e8e8e8;  <rect x="459.47" y="543.93" width="14.46" height="12.07"/>
fill:#e8e8e8;  <rect x="539.803" y="543.93" width="14.46" height="12.07"/>
fill:#e8e8e8;  <rect x="620.137" y="558" width="14.46" height="-2"/>
fill:#e8e8e8;  <rect x="700.47" y="558" width="14.46" height="-2"/>
fill:#dfdfdf;  <rect x="73.87" y="558" width="14.46" height="-2"/>
fill:#dfdfdf;  <rect x="154.203" y="543.93" width="14.46" height="12.07"/>
fill:#dfdfdf;  <rect x="234.537" y="543.93" width="14.46" height="12.07"/>
fill:#dfdfdf;  <rect x="314.87" y="543.93" width="14.46" height="12.07"/>
fill:#dfdfdf;  <rect x="395.203" y="543.93" width="14.46" height="12.07"/>
fill:#dfdfdf;  <rect x="475.537" y="543.93" width="14.46" height="12.07"/>
fill:#dfdfdf;  <rect x="555.87" y="543.93" width="14.46" height="12.07"/>
fill:#dfdfdf;  <rect x="636.203" y="558" width="14.46" height="-2"/>
fill:#dfdfdf;  <rect x="716.537" y="558" width="14.46" height="-2"/>
fill:#d0d0d0;  <rect x="89.9367" y="558" width="14.4603" height="-2"/>
fill:#d0d0d0;  <rect x="170.27" y="543.93" width="14.46" height="12.07"/>
fill:#d0d0d0;  <rect x="250.603" y="543.93" width="14.46" height="12.07"/>
fill:#d0d0d0;  <rect x="330.937" y="543.93" width="14.46" height="12.07"/>
fill:#d0d0d0;  <rect x="411.27" y="543.93" width="14.46" height="12.07"/>
fill:#d0d0d0;  <rect x="491.603" y="543.93" width="14.46" height="12.07"/>
fill:#d0d0d0;  <rect x="571.937" y="543.93" width="14.46" height="12.07"/>
fill:#d0d0d0;  <rect x="652.27" y="558" width="14.46" height="-2"/>
fill:#d0d0d0;  <rect x="732.603" y="558" width="14.46" height="-2"/>
fill:#c0c0c0;  <rect x="106.003" y="558" width="14.46" height="-2"/>
fill:#c0c0c0;  <rect x="186.337" y="543.93" width="14.46" height="12.07"/>
fill:#c0c0c0;  <rect x="266.67" y="543.93" width="14.46" height="12.07"/>
fill:#c0c0c0;  <rect x="347.003" y="543.93" width="14.46" height="12.07"/>
fill:#c0c0c0;  <rect x="427.337" y="543.93" width="14.46" height="12.07"/>
fill:#c0c0c0;  <rect x="507.67" y="543.93" width="14.46" height="12.07"/>
fill:#c0c0c0;  <rect x="588.003" y="543.93" width="14.46" height="12.07"/>
fill:#c0c0c0;  <rect x="668.337" y="543.93" width="14.46" height="12.07"/>
fill:#c0c0c0;  <rect x="748.67" y="543.93" width="14.46" height="12.07"/>
fill:#869023;  <rect x="122.07" y="558" width="14.46" height="-2"/>
fill:#869023;  <rect x="202.403" y="543.93" width="14.46" height="12.07"/>
fill:#869023;  <rect x="282.737" y="543.93" width="14.46" height="12.07"/>
fill:#869023;  <rect x="363.07" y="543.93" width="14.46" height="12.07"/>
fill:#869023;  <rect x="443.403" y="543.93" width="14.46" height="12.07"/>
fill:#869023;  <rect x="523.737" y="543.93" width="14.46" height="12.07"/>
fill:#869023;  <rect x="604.07" y="543.93" width="14.46" height="12.07"/>
fill:#869023;  <rect x="684.403" y="543.93" width="14.46" height="12.07"/>
fill:#869023;  <rect x="764.737" y="543.93" width="14.46" height="12.07"/>
</svg>
